<svg width="122" height="80" viewBox="0 0 122 80" fill="none" xmlns="http://www.w3.org/2000/svg">
<g clip-path="url(#clip0)" filter="url(#filter0_d)">
<path d="M75.8918 37.1234C68.1897 41.5699 60.4876 46.0164 52.7854 50.4629C50.1251 51.9987 47.1029 52.0095 44.4542 50.482C35.4117 45.2617 26.3688 40.0412 17.3253 34.8203C14.9731 33.4624 14.9873 31.6145 17.3427 30.253C32.8893 21.2779 48.4354 12.303 63.9811 3.32834C66.4265 1.91659 69.5692 1.91174 72.0086 3.31836C81.053 8.53977 90.0965 13.7606 99.1389 18.9809C101.714 20.4672 101.705 22.2195 99.113 23.7176C91.377 28.1859 83.6366 32.6545 75.8918 37.1234Z" fill="#CBAC8D"/>
<path d="M21.644 48.4243L43.8402 61.2383C46.4424 62.7406 49.5334 63.3129 53.1464 62.8317C54.6552 62.6331 56.0415 62.2013 57.1568 61.5824C57.7522 61.2554 58.3403 60.9142 58.9241 60.5772L101.659 35.906C102.863 36.6596 104.379 37.2179 105.045 38.1861C105.896 39.4219 105.479 40.5491 103.917 41.5233C103.217 41.9576 102.475 42.3675 101.749 42.7867C86.8661 51.3785 71.9841 59.97 57.1026 68.5612C54.6557 69.9738 51.5203 69.9929 49.0721 68.5829C39.957 63.3318 30.852 58.0755 21.7572 52.8138C19.5635 51.5473 19.489 49.655 21.644 48.4243Z" fill="#CBAC8D"/>
<path d="M19.4107 39.3939L20.171 39.8329C27.2954 43.9459 34.4189 48.0583 41.5414 52.1702C44.2498 53.7337 47.4077 54.3228 51.1412 53.7804C52.8787 53.5294 54.2992 52.9645 55.5509 52.2418C69.8864 43.9658 84.2224 35.6895 98.5589 27.413C99.4607 26.8924 99.497 26.8714 100.365 27.4245C101.233 27.9775 102.178 28.5046 102.741 29.1464C103.734 30.28 103.285 31.3871 101.916 32.3588C101.71 32.4955 101.492 32.6259 101.262 32.7495C85.8173 41.666 70.3723 50.5824 54.9274 59.4989C52.4152 60.9493 49.4541 61.0104 46.9362 59.5802C42.3089 56.9625 37.7557 54.3054 33.1661 51.6592C28.7655 49.1187 24.378 46.5706 19.9571 44.0419C18.5688 43.2488 17.6569 42.3652 17.8868 41.1968C18.0064 40.51 18.5468 39.8707 19.4107 39.3939Z" fill="#CBAC8D"/>
</g>
<defs>
<filter id="filter0_d" x="-6" y="-1" width="133.069" height="81.8942" filterUnits="userSpaceOnUse" color-interpolation-filters="sRGB">
<feFlood flood-opacity="0" result="BackgroundImageFix"/>
<feColorMatrix in="SourceAlpha" type="matrix" values="0 0 0 0 0 0 0 0 0 0 0 0 0 0 0 0 0 0 127 0"/>
<feOffset dy="4"/>
<feGaussianBlur stdDeviation="3"/>
<feColorMatrix type="matrix" values="0 0 0 0 0 0 0 0 0 0 0 0 0 0 0 0 0 0 0.25 0"/>
<feBlend mode="normal" in2="BackgroundImageFix" result="effect1_dropShadow"/>
<feBlend mode="normal" in="SourceGraphic" in2="effect1_dropShadow" result="shape"/>
</filter>
<clipPath id="clip0">
<rect width="61.2687" height="78.5275" fill="white" transform="matrix(0.866041 0.499972 -0.866041 0.499972 68.0081 1)"/>
</clipPath>
</defs>
</svg>
