<svg width="122" height="70" viewBox="0 0 122 70" fill="none" xmlns="http://www.w3.org/2000/svg">
<g clip-path="url(#clip1)" filter="url(#filter1_i)">
<path d="M75.8918 36.1234C68.1896 40.5699 60.4875 45.0164 52.7853 49.4629C50.125 50.9987 47.1029 51.0095 44.4541 49.482C35.4117 44.2617 26.3687 39.0412 17.3253 33.8203C14.9731 32.4624 14.9873 30.6145 17.3426 29.253C32.8892 20.2779 48.4354 11.303 63.981 2.32834C66.4264 0.916593 69.5691 0.911739 72.0086 2.31836C81.053 7.53977 90.0964 12.7606 99.1389 17.9809C101.713 19.4672 101.705 21.2195 99.113 22.7176C91.3769 27.1859 83.6365 31.6545 75.8918 36.1234Z" fill="#C99C70" fill-opacity="0.2"/>
<path d="M21.6438 47.4243L43.84 60.2383C46.4423 61.7406 49.5333 62.3129 53.1463 61.8317C54.6551 61.6331 56.0414 61.2013 57.1567 60.5824C57.7521 60.2554 58.3402 59.9142 58.924 59.5772L101.659 34.906C102.863 35.6596 104.379 36.2179 105.045 37.1861C105.896 38.4219 105.479 39.5491 103.917 40.5233C103.217 40.9576 102.475 41.3675 101.748 41.7867C86.866 50.3785 71.984 58.97 57.1025 67.5612C54.6556 68.9738 51.5202 68.9929 49.072 67.5829C39.9569 62.3318 30.8519 57.0755 21.7571 51.8138C19.5633 50.5473 19.4889 48.655 21.6438 47.4243Z" fill="#C99C70" fill-opacity="0.2"/>
<path d="M19.4106 38.3939L20.1709 38.8329C27.2954 42.9459 34.4189 47.0583 41.5414 51.1702C44.2497 52.7337 47.4076 53.3228 51.1412 52.7804C52.8787 52.5294 54.2991 51.9645 55.5508 51.2418C69.8864 42.9658 84.2224 34.6895 98.5589 26.413C99.4606 25.8924 99.4969 25.8714 100.365 26.4245C101.233 26.9775 102.178 27.5046 102.741 28.1464C103.734 29.28 103.285 30.3871 101.916 31.3588C101.71 31.4955 101.492 31.6259 101.262 31.7495C85.8172 40.666 70.3723 49.5824 54.9273 58.4989C52.4151 59.9493 49.4541 60.0104 46.9361 58.5802C42.3088 55.9625 37.7556 53.3054 33.166 50.6592C28.7655 48.1187 24.378 45.5706 19.9571 43.0419C18.5687 42.2488 17.6569 41.3652 17.8868 40.1968C18.0063 39.51 18.5467 38.8707 19.4106 38.3939Z" fill="#C99C70" fill-opacity="0.2"/>
</g>
<defs>
<filter id="filter1_i" x="0" y="0" width="121.069" height="71.6203" filterUnits="userSpaceOnUse" color-interpolation-filters="sRGB">
<feFlood flood-opacity="0" result="BackgroundImageFix"/>
<feBlend mode="normal" in="SourceGraphic" in2="BackgroundImageFix" result="shape"/>
<feColorMatrix in="SourceAlpha" type="matrix" values="0 0 0 0 0 0 0 0 0 0 0 0 0 0 0 0 0 0 127 0" result="hardAlpha"/>
<feOffset dy="1.72604"/>
<feGaussianBlur stdDeviation="4.31511"/>
<feComposite in2="hardAlpha" operator="arithmetic" k2="-1" k3="1"/>
<feColorMatrix type="matrix" values="0 0 0 0 0 0 0 0 0 0 0 0 0 0 0 0 0 0 0.25 0"/>
<feBlend mode="normal" in2="shape" result="effect1_innerShadow"/>
</filter>
<clipPath id="clip1">
<rect width="61.2687" height="78.5275" fill="white" transform="matrix(0.866041 0.499972 -0.866041 0.499972 68.0081 0)"/>
</clipPath>
</defs>
</svg>
