<svg width="57" height="98" viewBox="0 0 57 98" fill="none" xmlns="http://www.w3.org/2000/svg">
<g filter="url(#filter0_i)">
<path d="M7.34912 72.8522C7.34912 77.0055 8.23231 79.9958 9.99871 81.8232C11.667 83.5177 14.2675 84.365 17.8003 84.365H26.1907C29.7235 84.365 32.324 83.5177 33.9923 81.8232C35.7587 79.9958 36.6419 77.0055 36.6419 72.8522C36.6419 68.6658 35.7587 65.6588 33.9923 63.8314C32.324 62.1369 29.7235 61.2896 26.1907 61.2896H20.5971C17.2606 61.2896 15.5923 59.5453 15.5923 56.0565C15.5923 52.5346 17.2606 50.7736 20.5971 50.7736H23.3939V44.3209L19.0938 44.3209C18.0279 44.3209 16.0847 44.2778 15.1752 44.4939C14.2382 45.9649 12.3365 48.7618 11.1716 49.9451C9.40515 51.7725 7.34912 51.8701 7.34912 56.0565C7.34912 59.8111 8.06876 62.602 9.50805 64.4295C8.1039 66.2123 7.38469 68.9279 7.35041 72.5765C7.34955 72.6678 7.34912 72.7597 7.34912 72.8522ZM15.5923 72.8522C15.5923 69.3303 17.2606 67.5693 20.5971 67.5693H23.3939C26.7304 67.5693 28.3987 69.3303 28.3987 72.8522C28.3987 76.341 26.7304 78.0853 23.3939 78.0853H20.5971C17.2606 78.0853 15.5923 76.341 15.5923 72.8522Z" fill="#C99C70" fill-opacity="0.2"/>
<path d="M19.9392 60.6578L21.1717 53.6554L23.2963 52.4094L23.2961 58.6891L19.9392 60.6578ZM24.3161 51.8113C27.1773 50.1333 28.622 47.5416 28.6505 44.0363L28.6508 32.4737L35.7895 28.287L35.7892 39.8496C35.7607 43.9862 34.9816 47.4334 33.4518 50.1912C32.007 52.7331 29.7691 54.8928 26.738 56.6705L24.3159 58.091L24.3161 51.8113Z" fill="#C99C70" fill-opacity="0.2"/>
<path d="M41.6876 31.6701C41.6876 33.9294 42.7671 35.0591 44.926 35.0591H46.6924C48.8513 35.0591 49.9308 33.9294 49.9308 31.6701C49.9308 29.4107 48.8513 28.281 46.6924 28.281H44.926C42.7671 28.281 41.6876 29.4107 41.6876 31.6701ZM29.0604 66.1913H39.4796C42.9797 66.1913 45.5639 65.3274 47.2321 63.5997C48.9985 61.7723 49.8981 58.7986 49.9308 54.6786V43.1159H41.6876V54.6786C41.6549 58.1673 43.5419 62.2282 18.8382 61.1899L29.0604 66.1913Z" fill="#C99C70" fill-opacity="0.2"/>
<path d="M56.4968 11.3546C56.4354 7.20183 55.5081 4.22532 53.7149 2.42504C52.0218 0.756152 49.409 -0.051352 45.8766 0.00252763L37.4872 0.130492C33.9547 0.184371 31.367 1.0712 29.724 2.79097C27.9848 4.64513 27.1459 7.64858 27.2073 11.8014C27.2633 15.5887 28.0244 18.385 29.4905 20.1902C28.0789 22.0726 28.579 29.3149 28.6345 33.069L35.7901 28.3101C35.738 24.7886 37.2886 23.2115 40.6247 23.1606L46.2177 23.0753C49.7501 23.0214 52.3378 22.1346 53.9809 20.4148C55.72 18.5607 56.5587 15.5406 56.4968 11.3546ZM48.2545 11.4803C48.3066 15.0019 46.6646 16.7881 43.3284 16.839L40.5319 16.8816C37.1958 16.9325 35.5016 15.1972 35.4496 11.6756C35.398 8.18731 37.0403 6.41771 40.3765 6.36683L43.1729 6.32417C46.5091 6.27328 48.203 7.99199 48.2545 11.4803Z" fill="#C99C70" fill-opacity="0.2"/>
<path d="M4.62189 84.5692L0.5 88.4315L2.62468 89.6774L7.9789 86.5377L4.62189 84.5692ZM8.44633 86.8118L4.32444 90.6741L6.44912 91.92L11.8033 88.7803L8.44633 86.8118ZM7.42648 92.4931L12.2708 95.3338C15.302 97.1113 18.2624 98 21.152 98C24.2398 97.9834 27.5402 96.9617 31.053 94.9351L45.5009 86.4629L38.3619 82.2767L23.9141 90.7488C20.9112 92.41 18.0074 92.4184 15.2028 90.7738L12.7807 89.3534L7.42648 92.4931Z" fill="#C99C70" fill-opacity="0.2"/>
</g>
<defs>
<filter id="filter0_i" x="0.5" y="0" width="56" height="99.726" filterUnits="userSpaceOnUse" color-interpolation-filters="sRGB">
<feFlood flood-opacity="0" result="BackgroundImageFix"/>
<feBlend mode="normal" in="SourceGraphic" in2="BackgroundImageFix" result="shape"/>
<feColorMatrix in="SourceAlpha" type="matrix" values="0 0 0 0 0 0 0 0 0 0 0 0 0 0 0 0 0 0 127 0" result="hardAlpha"/>
<feOffset dy="1.72604"/>
<feGaussianBlur stdDeviation="4.31511"/>
<feComposite in2="hardAlpha" operator="arithmetic" k2="-1" k3="1"/>
<feColorMatrix type="matrix" values="0 0 0 0 0 0 0 0 0 0 0 0 0 0 0 0 0 0 0.25 0"/>
<feBlend mode="normal" in2="shape" result="effect1_innerShadow"/>
</filter>
</defs>
</svg>
