<svg width="69" height="110" viewBox="0 0 69 110" fill="none" xmlns="http://www.w3.org/2000/svg">
<g filter="url(#filter4_d)">
<path d="M13.3491 74.8522C13.3491 79.0055 14.2323 81.9958 15.9987 83.8232C17.667 85.5177 20.2675 86.365 23.8003 86.365H32.1907C35.7235 86.365 38.324 85.5177 39.9923 83.8232C41.7587 81.9958 42.6419 79.0055 42.6419 74.8522C42.6419 70.6658 41.7587 67.6588 39.9923 65.8314C38.324 64.1369 35.7235 63.2896 32.1907 63.2896H26.5971C23.2606 63.2896 21.5923 61.5453 21.5923 58.0565C21.5923 54.5346 23.2606 52.7736 26.5971 52.7736H29.3939V46.3209L25.0938 46.3209C24.0279 46.3209 22.0847 46.2778 21.1752 46.4939C20.2382 47.9649 18.3365 50.7618 17.1716 51.9451C15.4052 53.7725 13.3491 53.8701 13.3491 58.0565C13.3491 61.8111 14.0688 64.602 15.508 66.4295C14.1039 68.2123 13.3847 70.9279 13.3504 74.5765C13.3495 74.6678 13.3491 74.7597 13.3491 74.8522ZM21.5923 74.8522C21.5923 71.3303 23.2606 69.5693 26.5971 69.5693H29.3939C32.7304 69.5693 34.3987 71.3303 34.3987 74.8522C34.3987 78.341 32.7304 80.0853 29.3939 80.0853H26.5971C23.2606 80.0853 21.5923 78.341 21.5923 74.8522Z" fill="#CBAC8D"/>
<path d="M25.9392 62.6578L27.1717 55.6554L29.2963 54.4094L29.2961 60.6891L25.9392 62.6578ZM30.3161 53.8113C33.1773 52.1333 34.622 49.5416 34.6505 46.0363L34.6508 34.4737L41.7895 30.287L41.7892 41.8496C41.7607 45.9862 40.9816 49.4334 39.4518 52.1912C38.007 54.7331 35.7691 56.8928 32.738 58.6705L30.3159 60.091L30.3161 53.8113Z" fill="#CBAC8D"/>
<path d="M47.6876 33.6701C47.6876 35.9294 48.7671 37.0591 50.926 37.0591H52.6924C54.8513 37.0591 55.9308 35.9294 55.9308 33.6701C55.9308 31.4107 54.8513 30.281 52.6924 30.281H50.926C48.7671 30.281 47.6876 31.4107 47.6876 33.6701ZM35.0604 68.1913H45.4796C48.9797 68.1913 51.5639 67.3274 53.2321 65.5997C54.9985 63.7723 55.8981 60.7986 55.9308 56.6786V45.1159H47.6876V56.6786C47.6549 60.1673 49.5419 64.2282 24.8382 63.1899L35.0604 68.1913Z" fill="#CBAC8D"/>
<path d="M62.4968 13.3546C62.4354 9.20183 61.5081 6.22532 59.7149 4.42504C58.0218 2.75615 55.409 1.94865 51.8766 2.00253L43.4872 2.13049C39.9547 2.18437 37.367 3.0712 35.724 4.79097C33.9848 6.64513 33.1459 9.64858 33.2073 13.8014C33.2633 17.5887 34.0244 20.385 35.4905 22.1902C34.0789 24.0726 34.579 31.3149 34.6345 35.069L41.7901 30.3101C41.738 26.7886 43.2886 25.2115 46.6247 25.1606L52.2177 25.0753C55.7501 25.0214 58.3378 24.1346 59.9809 22.4148C61.72 20.5607 62.5587 17.5406 62.4968 13.3546ZM54.2545 13.4803C54.3066 17.0019 52.6646 18.7881 49.3284 18.839L46.5319 18.8816C43.1958 18.9325 41.5016 17.1972 41.4496 13.6756C41.398 10.1873 43.0403 8.41771 46.3765 8.36683L49.1729 8.32417C52.5091 8.27328 54.203 9.99199 54.2545 13.4803Z" fill="#CBAC8D"/>
<path d="M10.6219 86.5692L6.5 90.4315L8.62468 91.6774L13.9789 88.5377L10.6219 86.5692ZM14.4463 88.8118L10.3244 92.6741L12.4491 93.92L17.8033 90.7803L14.4463 88.8118ZM13.4265 94.4931L18.2708 97.3338C21.302 99.1113 24.2624 100 27.152 100C30.2398 99.9834 33.5402 98.9617 37.053 96.9351L51.5009 88.4629L44.3619 84.2767L29.9141 92.7488C26.9112 94.41 24.0074 94.4184 21.2028 92.7738L18.7807 91.3534L13.4265 94.4931Z" fill="#CBAC8D"/>
</g>
<defs>
<filter id="filter4_d" x="0.5" y="0" width="68" height="110" filterUnits="userSpaceOnUse" color-interpolation-filters="sRGB">
<feFlood flood-opacity="0" result="BackgroundImageFix"/>
<feColorMatrix in="SourceAlpha" type="matrix" values="0 0 0 0 0 0 0 0 0 0 0 0 0 0 0 0 0 0 127 0"/>
<feOffset dy="4"/>
<feGaussianBlur stdDeviation="3"/>
<feColorMatrix type="matrix" values="0 0 0 0 0 0 0 0 0 0 0 0 0 0 0 0 0 0 0.25 0"/>
<feBlend mode="normal" in2="BackgroundImageFix" result="effect1_dropShadow"/>
<feBlend mode="normal" in="SourceGraphic" in2="effect1_dropShadow" result="shape"/>
</filter>
</defs>
</svg>
