<svg width="57" height="57" viewBox="0 0 57 57" fill="none" xmlns="http://www.w3.org/2000/svg">
<path d="M52.848 0.725067H52.9655C52.9919 0.736763 53.0195 0.745404 53.0478 0.75082C53.2297 0.759827 53.4066 0.813527 53.5629 0.907169C53.7191 1.00081 53.8498 1.13151 53.9435 1.28771C54.1313 1.58169 54.2828 1.89731 54.3948 2.22769C54.9546 3.99754 55.5002 5.77243 56.0317 7.55235C56.194 8.09372 56.3082 8.65245 56.4443 9.20333V10.0341C56.4219 10.1517 56.3995 10.2698 56.3765 10.3868C55.7887 13.3423 55.2205 16.3016 54.608 19.2508C54.0891 21.7494 53.5226 24.2362 52.97 26.7264C52.8379 27.321 52.717 27.915 52.7058 28.5291C52.6979 29.3828 52.8217 30.2325 53.073 31.0484C53.9799 34.1126 54.8926 37.1748 55.8111 40.2349C55.9701 40.7645 56.0457 41.3025 55.9404 41.8489C55.8559 42.289 55.7327 42.7206 55.6174 43.1533C54.7844 46.2814 53.9501 49.4088 53.1144 52.5358C53.0109 52.9243 52.8905 53.3044 52.6666 53.6375C52.4667 53.941 52.2008 54.1313 51.8549 54.1867C51.4663 54.2494 51.0896 54.1755 50.7201 54.0664C47.7459 53.1852 44.7724 52.3019 41.7993 51.4166C41.436 51.3091 41.0677 51.2005 40.6954 51.158C40.0505 51.0835 39.4923 51.3573 38.9958 51.7811C37.1539 53.3531 35.2265 54.797 33.3007 56.2492C32.9263 56.5314 32.4718 56.6871 32.003 56.6937C31.7791 56.7016 31.5552 56.7144 31.3313 56.7251H25.6731C25.5633 56.7096 25.4526 56.7014 25.3417 56.7004C24.6026 56.7463 23.8737 56.5098 23.3023 56.0387C21.4123 54.535 19.5078 53.0525 17.6156 51.5516C17.0631 51.1126 16.4736 51.0012 15.8209 51.1972C13.0886 52.0157 10.3574 52.8319 7.62732 53.6459C6.96113 53.8436 6.2927 54.0378 5.61532 54.1828C4.83717 54.3469 4.36916 54.0613 4.03719 53.2871C3.93197 53.0398 3.84387 52.7856 3.77351 52.5262C2.96588 49.5505 2.16048 46.5736 1.35732 43.5956C1.19274 42.9854 1.03879 42.3712 0.90107 41.7537C0.852925 41.5376 0.810379 41.2879 0.864122 41.0819C1.11268 40.1336 1.39147 39.1947 1.6669 38.2547C2.51858 35.3491 3.37231 32.4445 4.22809 29.5408C4.30763 29.2649 4.32973 28.9757 4.29302 28.6909C4.26447 28.4496 4.22305 28.2083 4.1721 27.971C3.62348 25.4198 3.05638 22.873 2.52623 20.3168C1.89363 17.269 1.29462 14.2145 0.678821 11.1617C0.593168 10.7328 0.520392 10.3012 0.442017 9.87067V9.19885C0.497999 8.91893 0.532708 8.62613 0.615001 8.35237C1.17258 6.50004 1.73595 4.64826 2.3051 2.79705C2.41879 2.40927 2.55411 2.02817 2.71041 1.65553C2.91139 1.19254 3.24 0.871746 3.72369 0.769855C3.80878 0.752499 3.89499 0.739623 3.98064 0.725067H4.00976C4.03168 0.735294 4.05432 0.743901 4.07749 0.75082C4.36748 0.82192 4.66978 0.85775 4.94634 0.968599C9.91008 2.95828 14.8712 4.95506 19.8297 6.95892C20.6555 7.29483 21.4857 7.48741 22.3713 7.45662C23.1209 7.43087 23.8728 7.4723 24.624 7.4751C26.5045 7.48181 28.3849 7.49245 30.2654 7.48405C31.6649 7.4779 33.0645 7.43311 34.464 7.42807C35.3211 7.42471 36.1575 7.31274 36.9659 7.00147C37.4411 6.81896 37.9119 6.62134 38.385 6.43043L45.6565 3.49461C47.7413 2.65485 49.8238 1.80612 51.9119 0.975317C52.2115 0.852711 52.5356 0.806244 52.848 0.725067ZM50.0763 26.5338C50.4122 26.5394 50.588 26.4252 50.6887 26.189C50.7272 26.0969 50.7579 26.0018 50.7806 25.9046C51.1911 24.1791 51.6016 22.4535 52.0122 20.7277C52.8138 17.3533 53.6147 13.979 54.4149 10.6046C54.4352 10.5136 54.4316 10.4189 54.4043 10.3297C54.2363 9.80852 54.0617 9.29123 53.8904 8.77225C53.3776 7.21925 52.8651 5.66643 52.3531 4.1138C52.2775 3.88482 52.2075 3.65137 52.1129 3.43135C52.0245 3.22533 51.875 3.16374 51.6718 3.22141C51.576 3.24585 51.484 3.28353 51.3986 3.33338C51.1355 3.49741 50.8696 3.65865 50.6188 3.84339C44.9276 8.04894 39.2385 12.2552 33.5515 16.4623C33.3355 16.622 33.1327 16.7989 32.9452 16.9913C32.751 17.1917 32.7487 17.4062 32.9239 17.6273C33.0408 17.7761 33.1721 17.913 33.3158 18.036C34.8008 19.2919 36.2885 20.5444 37.7787 21.7936C38.3145 22.2415 38.8524 22.6894 39.4156 23.0947C40.2167 23.6725 41.1298 23.9793 42.0507 24.2458C44.5318 24.9635 47.0137 25.6756 49.4963 26.3821C49.7197 26.4459 49.9442 26.5008 50.0763 26.5355V26.5338ZM6.80214 26.5338C6.87268 26.5182 7.00872 26.4974 7.13803 26.4588C10.0767 25.606 13.0165 24.7506 15.9575 23.8925C16.4367 23.7531 16.9131 23.6126 17.3167 23.2767C19.4171 21.518 21.5178 19.7603 23.6186 18.0035C23.7554 17.8885 23.8784 17.7582 23.9853 17.615C24.1297 17.4218 24.1269 17.2192 23.9707 17.0372C23.8382 16.8837 23.6889 16.7455 23.5257 16.6252C19.399 13.5696 15.2713 10.5162 11.1424 7.46502C9.35884 6.14566 7.57619 4.82704 5.79446 3.50917C5.65464 3.40469 5.50459 3.31465 5.34661 3.24044C5.12604 3.13799 4.96705 3.19454 4.84277 3.41567C4.75883 3.56633 4.68875 3.72429 4.6334 3.88762C4.22529 5.08065 3.81774 6.27423 3.42026 7.47062C3.1062 8.41787 2.80446 9.37073 2.50496 10.3258C2.47849 10.4169 2.4756 10.5132 2.49656 10.6057C2.79886 11.9068 3.10415 13.207 3.41243 14.5062C4.23909 17.9817 5.06707 21.4564 5.89635 24.9304C5.99096 25.3257 6.07829 25.7232 6.19418 26.1112C6.28375 26.4146 6.46513 26.5366 6.7999 26.5366L6.80214 26.5338ZM28.4588 50.7347C29.5691 50.7347 30.6791 50.7347 31.7886 50.7347C31.9359 50.7347 32.0837 50.7415 32.2298 50.7269C32.5489 50.6961 32.7487 50.4879 32.7728 50.1671C32.7806 50.0505 32.7789 49.9335 32.7678 49.8172C32.7118 49.2153 32.6558 48.6135 32.5998 48.0117C32.5679 47.6718 32.5181 47.3365 32.3686 47.0308C32.0394 46.359 31.4796 46.1407 30.8213 46.1351C29.4777 46.1276 28.1321 46.1241 26.7844 46.1244C26.4899 46.1244 26.1955 46.1244 25.901 46.1407C25.0613 46.1838 24.5166 46.6837 24.3788 47.5756C24.2909 48.1449 24.2557 48.7238 24.2008 49.2993C24.1745 49.5792 24.1448 49.8591 24.1409 50.1391C24.1409 50.4358 24.2915 50.6312 24.5597 50.6928C24.7037 50.7215 24.8506 50.7341 24.9974 50.7303C26.1514 50.7359 27.3052 50.7374 28.4588 50.7347ZM23.0549 37.71C23.6236 37.6915 23.8386 37.3495 23.6007 36.7935C23.2374 35.9482 22.8556 35.114 22.4721 34.2742C22.331 33.9669 21.9414 33.8208 21.6508 33.9568C20.9313 34.2927 20.2138 34.6342 19.4983 34.9813C19.2562 35.0999 19.0202 35.2307 18.7913 35.3732C18.6976 35.4267 18.6217 35.5064 18.5728 35.6025C18.5238 35.6985 18.504 35.8068 18.5158 35.914C18.536 36.1575 18.6838 36.2992 18.8825 36.3871C18.9143 36.4008 18.9468 36.4128 18.9799 36.4229C20.2701 36.8432 21.5607 37.2631 22.8516 37.6826C22.9185 37.6976 22.9865 37.7068 23.0549 37.71ZM33.1607 37.2481C33.2039 37.3338 33.2358 37.4681 33.3158 37.5415C33.4002 37.6265 33.506 37.687 33.622 37.7166C33.7381 37.7461 33.86 37.7437 33.9747 37.7094C34.2586 37.6255 34.5401 37.5336 34.8212 37.4396C35.8882 37.0828 36.955 36.7245 38.0217 36.3647C38.2204 36.2975 38.3755 36.1648 38.399 35.9247C38.4214 35.6946 38.3049 35.5266 38.1364 35.4079C38.0045 35.3178 37.8656 35.2382 37.7211 35.17C36.8981 34.7725 36.0746 34.375 35.2478 33.987C34.9678 33.8566 34.5452 34.0033 34.4198 34.2793C34.0178 35.1638 33.6271 36.054 33.2358 36.9441C33.203 37.0434 33.1779 37.145 33.1607 37.2481Z" fill="#DAA986"/>
</svg>
