<svg width="57" height="57" viewBox="0 0 57 57" fill="none" xmlns="http://www.w3.org/2000/svg">
<path d="M52.8478 0.725037H52.9654C52.9918 0.736733 53.0194 0.745373 53.0477 0.750789C53.2296 0.759797 53.4065 0.813496 53.5627 0.907139C53.719 1.00078 53.8497 1.13148 53.9434 1.28768C54.1312 1.58166 54.2827 1.89728 54.3946 2.22766C54.9545 3.99751 55.5001 5.7724 56.0316 7.55232C56.1939 8.09369 56.3081 8.65242 56.4441 9.2033V10.0341C56.4217 10.1517 56.3993 10.2698 56.3764 10.3868C55.7886 13.3422 55.2204 16.3016 54.6079 19.2508C54.089 21.7494 53.5224 24.2362 52.9699 26.7264C52.8378 27.3209 52.7169 27.9149 52.7057 28.5291C52.6977 29.3827 52.8216 30.2325 53.0729 31.0484C53.9798 34.1126 54.8925 37.1748 55.811 40.2349C55.97 40.7645 56.0455 41.3025 55.9403 41.8489C55.8558 42.2889 55.7326 42.7206 55.6173 43.1533C54.7843 46.2813 53.95 49.4088 53.1143 52.5357C53.0108 52.9243 52.8904 53.3044 52.6665 53.6375C52.4666 53.9409 52.2007 54.1313 51.8547 54.1867C51.4662 54.2494 51.0895 54.1755 50.72 54.0663C47.7458 53.1851 44.7722 52.3019 41.7992 51.4166C41.4359 51.3091 41.0675 51.2005 40.6953 51.158C40.0503 51.0835 39.4922 51.3573 38.9956 51.7811C37.1538 53.3531 35.2264 54.7969 33.3006 56.2492C32.9262 56.5314 32.4717 56.687 32.0029 56.6937C31.779 56.7015 31.5551 56.7144 31.3311 56.725H25.673C25.5632 56.7096 25.4525 56.7014 25.3416 56.7004C24.6025 56.7463 23.8736 56.5097 23.3022 56.0387C21.4122 54.5349 19.5077 53.0525 17.6155 51.5515C17.063 51.1126 16.4735 51.0012 15.8207 51.1971C13.0884 52.0156 10.3573 52.8319 7.6272 53.6459C6.96101 53.8435 6.29258 54.0378 5.6152 54.1828C4.83705 54.3468 4.36904 54.0613 4.03706 53.287C3.93185 53.0398 3.84375 52.7856 3.77339 52.5262C2.96575 49.5505 2.16036 46.5736 1.3572 43.5956C1.19261 42.9854 1.03866 42.3712 0.900948 41.7537C0.852803 41.5376 0.810257 41.2879 0.863999 41.0819C1.11256 40.1335 1.39135 39.1947 1.66678 38.2547C2.51846 35.3491 3.37218 32.4444 4.22796 29.5407C4.3075 29.2649 4.32961 28.9756 4.2929 28.6909C4.26435 28.4496 4.22292 28.2083 4.17198 27.9709C3.62336 25.4197 3.05626 22.873 2.52611 20.3168C1.89351 17.269 1.2945 14.2145 0.678699 11.1616C0.593046 10.7328 0.520269 10.3012 0.441895 9.87064V9.19882C0.497877 8.9189 0.532586 8.6261 0.614879 8.35234C1.17246 6.50001 1.73583 4.64823 2.30498 2.79702C2.41867 2.40924 2.55398 2.02814 2.71029 1.6555C2.91126 1.19251 3.23988 0.871716 3.72356 0.769824C3.80866 0.752469 3.89487 0.739593 3.98052 0.725037H4.00963C4.03155 0.735263 4.05419 0.74387 4.07737 0.750789C4.36736 0.821889 4.66966 0.857719 4.94621 0.968568C9.90996 2.95825 14.8711 4.95503 19.8296 6.95889C20.6553 7.2948 21.4856 7.48738 22.3712 7.45659C23.1208 7.43084 23.8726 7.47227 24.6239 7.47507C26.5044 7.48178 28.3848 7.49242 30.2652 7.48402C31.6648 7.47787 33.0643 7.43308 34.4639 7.42804C35.321 7.42468 36.1573 7.31271 36.9657 7.00144C37.441 6.81893 37.9118 6.6213 38.3849 6.4304L45.6564 3.49458C47.7412 2.65482 49.8237 1.80609 51.9118 0.975287C52.2113 0.852681 52.5355 0.806214 52.8478 0.725037ZM50.0762 26.5338C50.4121 26.5394 50.5879 26.4252 50.6886 26.1889C50.7271 26.0969 50.7578 26.0017 50.7804 25.9045C51.191 24.1791 51.6015 22.4535 52.012 20.7277C52.8137 17.3533 53.6146 13.979 54.4148 10.6046C54.4351 10.5136 54.4314 10.4189 54.4042 10.3297C54.2362 9.80849 54.0615 9.2912 53.8902 8.77222C53.3774 7.21922 52.865 5.6664 52.353 4.11377C52.2774 3.88479 52.2074 3.65134 52.1128 3.43132C52.0244 3.2253 51.8749 3.16371 51.6717 3.22138C51.5758 3.24582 51.4839 3.2835 51.3985 3.33335C51.1354 3.49738 50.8694 3.65861 50.6186 3.84336C44.9275 8.04891 39.2384 12.2552 33.5514 16.4622C33.3353 16.6219 33.1326 16.7988 32.9451 16.9913C32.7508 17.1917 32.7486 17.4061 32.9238 17.6273C33.0407 17.7761 33.1719 17.9129 33.3157 18.0359C34.8007 19.2919 36.2883 20.5444 37.7786 21.7936C38.3143 22.2415 38.8523 22.6894 39.4155 23.0947C40.2166 23.6725 41.1297 23.9792 42.0506 24.2457C44.5317 24.9634 47.0136 25.6756 49.4962 26.3821C49.7196 26.4459 49.9441 26.5008 50.0762 26.5355V26.5338ZM6.80202 26.5338C6.87256 26.5181 7.00859 26.4974 7.13791 26.4588C10.0766 25.606 13.0164 24.7505 15.9573 23.8925C16.4365 23.7531 16.9129 23.6125 17.3166 23.2766C19.417 21.518 21.5177 19.7603 23.6185 18.0035C23.7552 17.8885 23.8783 17.7581 23.9852 17.6149C24.1296 17.4218 24.1268 17.2191 23.9706 17.0372C23.8381 16.8837 23.6888 16.7455 23.5255 16.6251C19.3989 13.5695 15.2712 10.5161 11.1423 7.46499C9.35872 6.14563 7.57607 4.82701 5.79434 3.50914C5.65452 3.40466 5.50447 3.31462 5.34649 3.24041C5.12592 3.13796 4.96693 3.1945 4.84265 3.41564C4.75871 3.56629 4.68863 3.72426 4.63327 3.88759C4.22516 5.08062 3.81761 6.2742 3.42014 7.47059C3.10608 8.41784 2.80434 9.3707 2.50483 10.3258C2.47837 10.4169 2.47548 10.5132 2.49644 10.6057C2.79874 11.9068 3.10403 13.2069 3.4123 14.5061C4.23897 17.9816 5.06695 21.4564 5.89623 24.9304C5.99084 25.3257 6.07817 25.7232 6.19405 26.1111C6.28363 26.4146 6.46501 26.5366 6.79978 26.5366L6.80202 26.5338ZM28.4587 50.7347C29.569 50.7347 30.6789 50.7347 31.7885 50.7347C31.9357 50.7347 32.0835 50.7414 32.2296 50.7269C32.5487 50.6961 32.7486 50.4878 32.7727 50.167C32.7805 50.0505 32.7788 49.9334 32.7676 49.8171C32.7117 49.2153 32.6557 48.6135 32.5997 48.0116C32.5678 47.6718 32.518 47.3365 32.3685 47.0308C32.0393 46.359 31.4795 46.1406 30.8211 46.135C29.4776 46.1276 28.1319 46.124 26.7843 46.1244C26.4898 46.1244 26.1953 46.1244 25.9009 46.1406C25.0611 46.1837 24.5164 46.6837 24.3787 47.5755C24.2908 48.1449 24.2556 48.7238 24.2007 49.2993C24.1744 49.5792 24.1447 49.8591 24.1408 50.139C24.1408 50.4358 24.2914 50.6311 24.5595 50.6927C24.7036 50.7215 24.8505 50.7341 24.9973 50.7302C26.1513 50.7358 27.3051 50.7373 28.4587 50.7347ZM23.0547 37.71C23.6235 37.6915 23.8385 37.3494 23.6006 36.7935C23.2372 35.9481 22.8554 35.114 22.472 34.2742C22.3309 33.9668 21.9413 33.8207 21.6507 33.9568C20.9312 34.2927 20.2136 34.6342 19.4982 34.9813C19.256 35.0999 19.0201 35.2307 18.7911 35.3732C18.6975 35.4267 18.6216 35.5063 18.5726 35.6024C18.5237 35.6985 18.5039 35.8068 18.5157 35.914C18.5359 36.1575 18.6837 36.2992 18.8824 36.3871C18.9142 36.4008 18.9467 36.4128 18.9798 36.4229C20.27 36.8431 21.5606 37.263 22.8515 37.6825C22.9183 37.6976 22.9863 37.7068 23.0547 37.71ZM33.1606 37.2481C33.2037 37.3337 33.2356 37.4681 33.3157 37.5415C33.4001 37.6264 33.5059 37.687 33.6219 37.7165C33.738 37.7461 33.8599 37.7437 33.9746 37.7094C34.2584 37.6254 34.54 37.5336 34.8211 37.4396C35.8881 37.0828 36.9549 36.7244 38.0215 36.3647C38.2203 36.2975 38.3754 36.1648 38.3989 35.9246C38.4213 35.6945 38.3048 35.5266 38.1363 35.4079C38.0043 35.3177 37.8655 35.2382 37.7209 35.17C36.898 34.7725 36.0745 34.375 35.2476 33.987C34.9677 33.8566 34.5451 34.0032 34.4197 34.2792C34.0177 35.1638 33.627 36.0539 33.2356 36.9441C33.2029 37.0433 33.1778 37.145 33.1606 37.2481Z" fill="url(#paint0_radial)"/>
<defs>
<radialGradient id="paint0_radial" cx="0" cy="0" r="1" gradientUnits="userSpaceOnUse" gradientTransform="translate(0.441895 0.725037) rotate(44.2423) scale(79.3114 54.4238)">
<stop stop-color="#9B9B9B" stop-opacity="0.4"/>
<stop offset="1" stop-color="#303030" stop-opacity="0"/>
</radialGradient>
</defs>
</svg>
