<svg width="392" height="226" viewBox="0 0 392 226" fill="none" xmlns="http://www.w3.org/2000/svg">
<g clip-path="url(#clip4)" filter="url(#filter6_i)">
<path d="M245.278 116.748C220.385 131.119 195.493 145.49 170.6 159.861C162.002 164.825 152.234 164.859 143.674 159.923C114.449 143.051 85.2225 126.178 55.9947 109.305C48.3925 104.916 48.4383 98.9439 56.0507 94.5437C106.296 65.5364 156.541 36.5301 206.783 7.52462C214.687 2.96192 224.844 2.94624 232.728 7.49237C261.959 24.3676 291.187 41.2411 320.412 58.1128C328.733 62.9166 328.705 68.5798 320.328 73.4216C295.325 87.8629 270.309 102.305 245.278 116.748Z" fill="#C99C70" fill-opacity="0.2"/>
<path d="M69.9519 153.273L141.689 194.687C150.099 199.542 160.089 201.392 171.766 199.837C176.642 199.195 181.123 197.799 184.727 195.799C186.652 194.742 188.552 193.639 190.439 192.55L328.556 112.814C332.447 115.25 337.346 117.054 339.5 120.183C342.251 124.177 340.902 127.82 335.853 130.969C333.59 132.372 331.192 133.697 328.846 135.052C280.746 162.82 232.648 190.587 184.552 218.354C176.644 222.919 166.51 222.981 158.598 218.424C129.139 201.453 99.7118 184.465 70.3179 167.459C63.2278 163.366 62.9871 157.25 69.9519 153.273Z" fill="#C99C70" fill-opacity="0.2"/>
<path d="M62.7341 124.087L65.1914 125.505C88.2172 138.798 111.24 152.09 134.259 165.379C143.013 170.432 153.219 172.336 165.285 170.583C170.901 169.772 175.492 167.946 179.537 165.61C225.869 138.863 272.202 112.114 318.537 85.365C321.451 83.6824 321.569 83.6147 324.374 85.4021C327.179 87.1896 330.233 88.8931 332.052 90.9675C335.263 94.6311 333.811 98.2091 329.386 101.35C328.72 101.792 328.015 102.213 327.274 102.612C277.357 131.43 227.439 160.247 177.522 189.065C169.403 193.752 159.833 193.95 151.695 189.328C136.74 180.867 122.024 172.28 107.191 163.727C92.9685 155.517 78.7883 147.282 64.5002 139.109C60.0132 136.545 57.0661 133.69 57.8091 129.914C58.1955 127.694 59.9419 125.628 62.7341 124.087Z" fill="#C99C70" fill-opacity="0.2"/>
</g>
<defs>
<filter id="filter6_i" x="0" y="0" width="391.289" height="227.62" filterUnits="userSpaceOnUse" color-interpolation-filters="sRGB">
<feFlood flood-opacity="0" result="BackgroundImageFix"/>
<feBlend mode="normal" in="SourceGraphic" in2="BackgroundImageFix" result="shape"/>
<feColorMatrix in="SourceAlpha" type="matrix" values="0 0 0 0 0 0 0 0 0 0 0 0 0 0 0 0 0 0 127 0" result="hardAlpha"/>
<feOffset dy="1.72604"/>
<feGaussianBlur stdDeviation="4.31511"/>
<feComposite in2="hardAlpha" operator="arithmetic" k2="-1" k3="1"/>
<feColorMatrix type="matrix" values="0 0 0 0 0 0 0 0 0 0 0 0 0 0 0 0 0 0 0.25 0"/>
<feBlend mode="normal" in2="shape" result="effect1_innerShadow"/>
</filter>
<clipPath id="clip4">
<rect width="198.017" height="253.796" fill="white" transform="matrix(0.866041 0.499972 -0.866041 0.499972 219.798 0)"/>
</clipPath>
</defs>
</svg>
