<svg width="213" height="365" viewBox="0 0 213 365" fill="none" xmlns="http://www.w3.org/2000/svg">
<g filter="url(#filter11_i)">
<path d="M26.1388 271.337C26.1388 286.806 29.4823 297.944 36.1694 304.75C42.485 311.061 52.3298 314.217 65.704 314.217H97.4677C110.842 314.217 120.687 311.061 127.002 304.75C133.689 297.944 137.033 286.806 137.033 271.337C137.033 255.745 133.689 244.546 127.002 237.739C120.687 231.428 110.842 228.273 97.4677 228.273H76.2919C63.6607 228.273 57.3452 221.776 57.3452 208.782C57.3452 195.665 63.6607 189.106 76.2919 189.106H86.8798V165.073L70.6006 165.073C66.5657 165.073 59.2092 164.912 55.7663 165.717C52.2189 171.196 45.0196 181.613 40.6094 186.02C33.9223 192.826 26.1388 193.19 26.1388 208.782C26.1388 222.766 28.8631 233.161 34.3119 239.967C28.9962 246.607 26.2734 256.721 26.1436 270.31C26.1404 270.651 26.1388 270.993 26.1388 271.337ZM57.3452 271.337C57.3452 258.22 63.6607 251.661 76.2919 251.661H86.8798C99.5109 251.661 105.827 258.22 105.827 271.337C105.827 284.331 99.5109 290.828 86.8798 290.828H76.2919C63.6607 290.828 57.3452 284.331 57.3452 271.337Z" fill="#C99C70" fill-opacity="0.2"/>
<path d="M73.8013 225.919L78.4671 199.839L86.5102 195.198L86.5095 218.587L73.8013 225.919ZM90.371 192.971C101.202 186.721 106.672 177.068 106.78 164.013L106.781 120.948L133.806 105.355L133.805 148.419C133.697 163.826 130.747 176.665 124.956 186.937C119.487 196.404 111.014 204.448 99.5394 211.069L90.3702 216.359L90.371 192.971Z" fill="#C99C70" fill-opacity="0.2"/>
<path d="M156.134 117.955C156.134 126.37 160.221 130.577 168.394 130.577H175.081C183.254 130.577 187.341 126.37 187.341 117.955C187.341 109.54 183.254 105.332 175.081 105.332H168.394C160.221 105.332 156.134 109.54 156.134 117.955ZM108.332 246.529H147.776C161.026 246.529 170.809 243.311 177.124 236.876C183.812 230.07 187.217 218.995 187.341 203.65V160.585H156.134V203.65C156.011 216.643 163.154 231.768 69.6332 227.901L108.332 246.529Z" fill="#C99C70" fill-opacity="0.2"/>
<path d="M212.198 42.2901C211.965 26.8231 208.455 15.7372 201.666 9.03203C195.257 2.81628 185.365 -0.19126 171.993 0.00941415L140.233 0.486015C126.86 0.68669 117.064 3.98967 110.844 10.3949C104.26 17.3007 101.084 28.4871 101.316 43.954C101.528 58.0599 104.409 68.4747 109.96 75.1984C104.616 82.2093 106.509 109.183 106.719 123.165L133.808 105.441C133.611 92.3247 139.481 86.451 152.111 86.2615L173.284 85.9438C186.657 85.7431 196.453 82.4401 202.673 76.0348C209.257 69.129 212.432 57.8808 212.198 42.2901ZM180.995 42.7583C181.192 55.8743 174.976 62.5271 162.346 62.7166L151.759 62.8755C139.13 63.065 132.716 56.6018 132.519 43.4858C132.324 30.4935 138.541 23.9027 151.171 23.7132L161.758 23.5543C174.387 23.3648 180.8 29.7661 180.995 42.7583Z" fill="#C99C70" fill-opacity="0.2"/>
<path d="M15.8143 314.977L0.209946 329.362L8.2534 334.002L28.5229 322.309L15.8143 314.977ZM30.2925 323.33L14.6882 337.715L22.7316 342.355L43.0012 330.661L30.2925 323.33ZM26.4316 344.49L44.7707 355.07C56.246 361.69 67.4533 365 78.3924 365C90.0822 364.938 102.576 361.133 115.875 353.585L170.57 322.03L143.544 306.439L88.8489 337.993C77.4808 344.18 66.4881 344.211 55.8707 338.086L46.7012 332.796L26.4316 344.49Z" fill="#C99C70" fill-opacity="0.2"/>
</g>
<defs>
<filter id="filter11_i" x="0.209961" y="0" width="212" height="367" filterUnits="userSpaceOnUse" color-interpolation-filters="sRGB">
<feFlood flood-opacity="0" result="BackgroundImageFix"/>
<feBlend mode="normal" in="SourceGraphic" in2="BackgroundImageFix" result="shape"/>
<feColorMatrix in="SourceAlpha" type="matrix" values="0 0 0 0 0 0 0 0 0 0 0 0 0 0 0 0 0 0 127 0" result="hardAlpha"/>
<feOffset dy="2"/>
<feGaussianBlur stdDeviation="5"/>
<feComposite in2="hardAlpha" operator="arithmetic" k2="-1" k3="1"/>
<feColorMatrix type="matrix" values="0 0 0 0 0 0 0 0 0 0 0 0 0 0 0 0 0 0 0.25 0"/>
<feBlend mode="normal" in2="shape" result="effect1_innerShadow"/>
</filter>
</defs>
</svg>
